<svg id="svg" version="1.1" xmlns="http://www.w3.org/2000/svg" xmlns:xlink="http://www.w3.org/1999/xlink" width="400" height="239.46666666666667" viewBox="0, 0, 400,239.46666666666667"><g id="svgg"><path id="path0" d="M74.970 61.332 C 74.970 61.471,74.866 61.521,74.739 61.443 C 74.612 61.364,74.289 61.519,74.021 61.788 C 73.752 62.056,73.468 62.260,73.388 62.241 C 73.065 62.163,72.335 62.888,72.335 63.286 C 72.335 63.521,72.228 63.713,72.096 63.713 C 71.964 63.713,71.856 63.869,71.856 64.061 C 71.856 64.253,71.582 64.684,71.247 65.019 C 70.911 65.354,70.766 65.629,70.924 65.629 C 71.082 65.629,70.962 65.844,70.659 66.108 C 70.355 66.371,70.231 66.587,70.383 66.587 C 70.534 66.587,70.659 66.701,70.659 66.840 C 70.659 66.980,70.551 67.028,70.419 66.946 C 70.287 66.865,70.180 67.025,70.180 67.302 C 70.180 67.579,69.910 68.076,69.581 68.405 C 69.173 68.813,68.982 69.268,68.982 69.831 C 68.982 70.286,68.874 70.659,68.743 70.659 C 68.611 70.659,68.503 70.928,68.503 71.257 C 68.503 71.587,68.395 71.856,68.263 71.856 C 68.132 71.856,68.024 72.158,68.024 72.527 C 68.024 72.896,67.919 73.303,67.791 73.431 C 67.662 73.559,67.538 74.227,67.513 74.916 C 67.484 75.735,67.365 76.168,67.169 76.168 C 66.818 76.168,66.586 78.947,66.910 79.270 C 67.175 79.534,66.861 80.528,66.570 80.349 C 66.435 80.265,66.354 83.017,66.364 87.351 C 66.374 91.561,66.465 94.294,66.587 94.012 C 66.864 93.367,66.885 93.651,66.829 97.220 C 66.787 99.848,66.826 100.171,67.163 100.042 C 67.450 99.932,67.545 100.045,67.545 100.501 C 67.545 100.843,67.441 101.042,67.305 100.958 C 67.174 100.877,67.066 100.924,67.066 101.064 C 67.066 101.203,67.174 101.317,67.305 101.317 C 67.438 101.317,67.545 101.956,67.545 102.754 C 67.545 103.545,67.635 104.192,67.745 104.192 C 67.855 104.192,67.963 104.650,67.985 105.210 C 68.007 105.769,68.133 106.263,68.264 106.307 C 68.395 106.351,68.503 106.755,68.503 107.206 C 68.503 107.656,68.611 108.024,68.743 108.024 C 68.874 108.024,68.982 108.450,68.982 108.970 C 68.982 109.516,69.120 109.997,69.309 110.108 C 69.613 110.286,69.750 110.745,70.097 112.753 C 70.171 113.180,70.328 113.470,70.445 113.397 C 70.563 113.325,70.659 113.757,70.659 114.357 C 70.659 114.958,70.766 115.449,70.898 115.449 C 71.030 115.449,71.138 115.877,71.138 116.400 C 71.138 117.108,71.222 117.318,71.467 117.224 C 71.698 117.135,71.796 117.296,71.796 117.760 C 71.796 118.125,71.918 118.464,72.066 118.513 C 72.214 118.562,72.335 119.079,72.335 119.661 C 72.335 120.243,72.443 120.719,72.575 120.719 C 72.707 120.719,72.814 121.096,72.814 121.557 C 72.814 122.018,72.922 122.395,73.054 122.395 C 73.186 122.395,73.293 122.880,73.293 123.473 C 73.293 124.066,73.401 124.551,73.533 124.551 C 73.665 124.551,73.772 124.928,73.772 125.389 C 73.772 126.027,73.873 126.228,74.192 126.231 C 74.550 126.234,74.559 126.269,74.251 126.467 C 74.012 126.622,73.992 126.700,74.192 126.703 C 74.383 126.705,74.492 127.074,74.495 127.725 C 74.497 128.470,74.560 128.646,74.731 128.383 C 74.903 128.116,74.964 128.254,74.966 128.922 C 74.968 129.416,75.078 129.820,75.210 129.820 C 75.341 129.820,75.449 130.366,75.449 131.032 C 75.449 131.779,75.541 132.187,75.689 132.096 C 75.836 132.005,75.928 132.410,75.928 133.152 C 75.928 134.124,75.997 134.330,76.287 134.218 C 76.593 134.101,76.647 134.474,76.647 136.741 C 76.647 138.355,76.741 139.401,76.886 139.401 C 77.233 139.401,77.181 140.297,76.826 140.440 C 76.587 140.537,76.587 140.565,76.826 140.580 C 77.019 140.592,77.126 140.984,77.126 141.677 C 77.126 142.269,77.234 142.754,77.365 142.754 C 77.505 142.754,77.605 143.558,77.605 144.685 C 77.605 145.911,77.517 146.561,77.365 146.467 C 77.219 146.377,77.126 146.749,77.126 147.425 C 77.126 148.102,77.219 148.474,77.365 148.383 C 77.505 148.297,77.605 148.540,77.605 148.968 C 77.605 149.371,77.497 149.701,77.365 149.701 C 77.234 149.701,77.126 150.024,77.126 150.419 C 77.126 150.814,77.018 151.138,76.886 151.138 C 76.754 151.138,76.647 151.407,76.647 151.737 C 76.647 152.066,76.531 152.335,76.390 152.335 C 75.806 152.335,75.449 153.060,75.449 154.249 C 75.449 155.007,75.357 155.421,75.210 155.329 C 75.061 155.238,74.970 155.679,74.970 156.493 C 74.970 157.308,74.857 157.857,74.671 157.944 C 74.431 158.056,74.431 158.112,74.671 158.224 C 74.835 158.300,74.970 158.522,74.970 158.717 C 74.970 158.911,74.862 159.004,74.731 158.922 C 74.581 158.830,74.491 159.324,74.491 160.240 C 74.491 161.155,74.581 161.649,74.731 161.557 C 74.883 161.463,74.970 162.113,74.970 163.339 C 74.970 164.466,75.070 165.269,75.210 165.269 C 75.341 165.269,75.447 165.458,75.445 165.689 C 75.442 166.047,75.408 166.056,75.210 165.749 C 75.070 165.533,74.976 165.503,74.974 165.674 C 74.972 165.831,75.078 166.026,75.210 166.108 C 75.341 166.189,75.449 166.788,75.449 167.439 C 75.449 168.090,75.557 168.623,75.689 168.623 C 75.821 168.623,75.928 169.252,75.928 170.031 C 75.928 170.990,76.043 171.533,76.287 171.737 C 76.700 172.079,76.806 174.850,76.407 174.850 C 76.275 174.850,76.168 174.964,76.168 175.104 C 76.168 175.243,76.275 175.291,76.407 175.210 C 76.543 175.126,76.647 175.327,76.647 175.674 C 76.647 176.012,76.531 176.287,76.390 176.287 C 76.084 176.287,75.449 176.887,75.449 177.176 C 75.449 177.288,75.234 177.535,74.970 177.725 C 74.707 177.914,74.491 178.250,74.491 178.470 C 74.491 178.691,74.323 178.936,74.117 179.015 C 73.911 179.094,73.800 179.253,73.872 179.368 C 73.943 179.484,73.735 179.889,73.408 180.268 C 73.082 180.648,72.822 181.120,72.831 181.317 C 72.843 181.557,72.917 181.517,73.054 181.198 C 73.216 180.821,73.263 180.925,73.277 181.684 C 73.289 182.383,73.163 182.743,72.820 182.990 C 72.472 183.241,72.424 183.381,72.640 183.518 C 72.871 183.665,72.870 183.706,72.635 183.709 C 72.470 183.711,72.335 183.874,72.335 184.072 C 72.335 184.271,72.122 184.431,71.856 184.431 C 71.593 184.431,71.377 184.534,71.377 184.660 C 71.377 184.786,71.103 185.163,70.768 185.498 C 70.432 185.833,70.271 186.108,70.408 186.108 C 70.546 186.108,70.659 186.222,70.659 186.361 C 70.659 186.501,70.551 186.548,70.419 186.467 C 70.287 186.386,70.180 186.441,70.180 186.590 C 70.180 186.739,70.017 187.023,69.818 187.222 C 69.619 187.421,69.518 187.683,69.593 187.804 C 69.668 187.925,69.561 188.024,69.355 188.024 C 69.150 188.024,68.982 188.186,68.982 188.383 C 68.982 188.581,68.874 188.743,68.743 188.743 C 68.611 188.743,68.503 188.958,68.503 189.222 C 68.503 189.485,68.395 189.701,68.263 189.701 C 68.132 189.701,68.024 189.916,68.024 190.180 C 68.024 190.443,67.916 190.659,67.784 190.659 C 67.653 190.659,67.545 190.928,67.545 191.257 C 67.545 191.952,67.133 192.040,66.694 191.439 C 66.352 190.972,64.910 192.178,64.910 192.932 C 64.910 193.131,64.796 193.293,64.657 193.293 C 64.517 193.293,64.480 193.169,64.574 193.017 C 64.680 192.846,64.639 192.805,64.468 192.911 C 64.316 193.005,64.192 193.291,64.192 193.547 C 64.192 193.803,64.084 194.012,63.952 194.012 C 63.820 194.012,63.713 194.204,63.713 194.438 C 63.713 194.673,63.497 195.020,63.234 195.210 C 62.970 195.399,62.754 195.693,62.754 195.861 C 62.754 196.030,62.593 196.168,62.395 196.168 C 62.198 196.168,62.049 196.249,62.064 196.347 C 62.158 196.941,62.000 197.611,61.796 197.485 C 61.665 197.404,61.557 197.505,61.557 197.710 C 61.557 197.916,61.449 198.084,61.317 198.084 C 61.186 198.084,61.078 198.206,61.078 198.355 C 61.078 198.504,60.846 198.828,60.562 199.074 C 60.279 199.320,60.171 199.521,60.323 199.521 C 60.475 199.521,60.599 199.844,60.599 200.240 C 60.599 200.635,60.491 200.958,60.359 200.958 C 60.228 200.958,60.120 201.396,60.120 201.930 C 60.120 202.517,60.215 202.844,60.359 202.754 C 60.504 202.665,60.599 202.992,60.599 203.579 C 60.599 204.113,60.491 204.551,60.359 204.551 C 60.208 204.551,60.126 206.156,60.137 208.922 C 60.147 211.587,60.234 213.106,60.359 212.814 C 60.524 212.430,60.568 212.513,60.582 213.234 C 60.591 213.728,60.707 214.132,60.838 214.132 C 60.970 214.132,61.078 214.240,61.078 214.371 C 61.078 214.503,60.923 214.611,60.733 214.611 C 60.543 214.611,60.311 214.735,60.217 214.887 C 60.111 215.059,60.151 215.099,60.322 214.993 C 60.474 214.899,60.599 214.936,60.599 215.076 C 60.599 215.215,60.160 215.329,59.624 215.329 C 59.076 215.329,58.491 215.487,58.289 215.689 C 58.092 215.886,58.045 216.048,58.186 216.048 C 58.338 216.048,58.443 216.588,58.443 217.365 C 58.443 218.142,58.338 218.683,58.186 218.683 C 58.045 218.683,58.092 218.844,58.289 219.042 C 58.487 219.240,58.806 219.401,58.999 219.401 C 59.192 219.401,59.408 219.552,59.479 219.737 C 59.644 220.168,59.410 221.078,59.134 221.078 C 59.017 221.078,58.922 221.347,58.922 221.677 C 58.922 222.006,58.814 222.275,58.683 222.275 C 58.305 222.275,58.364 230.347,58.743 230.501 C 58.968 230.592,58.953 230.685,58.683 230.876 C 58.439 231.049,58.420 231.132,58.623 231.134 C 58.850 231.137,58.922 232.066,58.922 234.970 C 58.922 237.365,58.832 238.802,58.683 238.802 C 58.551 238.802,58.443 238.964,58.443 239.162 C 58.443 239.481,74.278 239.521,199.521 239.521 L 340.599 239.521 340.599 238.942 C 340.599 238.624,340.490 238.327,340.356 238.282 C 340.218 238.236,340.097 237.156,340.074 235.754 C 340.042 233.754,339.977 233.354,339.718 233.568 C 339.479 233.767,339.401 233.741,339.401 233.462 C 339.401 233.260,339.536 233.039,339.701 232.973 C 339.873 232.903,339.815 232.844,339.564 232.833 C 338.936 232.806,338.443 232.226,338.443 231.514 C 338.443 231.175,338.335 230.898,338.204 230.898 C 338.072 230.898,337.964 230.309,337.964 229.588 C 337.964 228.522,337.897 228.304,337.605 228.416 C 337.348 228.515,337.247 228.394,337.249 227.990 C 337.252 227.537,337.299 227.497,337.485 227.784 C 337.613 227.982,337.719 228.031,337.721 227.892 C 337.723 227.754,337.599 227.515,337.445 227.361 C 337.232 227.148,337.260 227.045,337.565 226.928 C 338.075 226.732,338.086 226.108,337.579 226.108 C 337.351 226.108,337.246 225.974,337.321 225.778 C 337.390 225.597,337.294 225.154,337.107 224.793 C 336.883 224.361,336.765 223.349,336.763 221.829 C 336.760 220.250,336.686 219.634,336.527 219.880 C 336.362 220.135,336.294 219.835,336.291 218.848 C 336.289 217.982,336.197 217.513,336.048 217.605 C 335.900 217.696,335.808 217.288,335.808 216.541 C 335.808 215.624,335.721 215.329,335.449 215.329 C 335.198 215.329,335.090 215.077,335.090 214.491 C 335.090 214.030,334.982 213.653,334.850 213.653 C 334.719 213.653,334.611 213.275,334.611 212.814 C 334.611 212.080,334.685 211.976,335.210 211.976 C 335.844 211.976,336.154 209.823,335.572 209.463 C 335.436 209.379,335.396 209.475,335.477 209.688 C 335.556 209.893,335.501 210.060,335.355 210.060 C 335.209 210.060,335.090 209.683,335.090 209.222 C 335.090 208.713,334.972 208.382,334.790 208.380 C 334.591 208.377,334.611 208.299,334.850 208.144 C 335.090 207.989,335.110 207.910,334.910 207.908 C 334.746 207.906,334.611 207.743,334.611 207.545 C 334.611 207.347,334.476 207.184,334.311 207.182 C 334.076 207.179,334.075 207.138,334.306 206.991 C 334.522 206.854,334.475 206.714,334.126 206.463 C 333.866 206.275,333.653 205.876,333.653 205.576 C 333.653 205.276,333.563 205.030,333.454 205.030 C 333.345 205.030,333.231 204.410,333.202 203.653 C 333.158 202.528,333.040 202.182,332.562 201.769 C 332.240 201.490,331.976 201.032,331.976 200.751 C 331.976 200.469,331.868 200.240,331.737 200.240 C 331.605 200.240,331.497 200.071,331.497 199.866 C 331.497 199.661,331.389 199.559,331.257 199.641 C 331.126 199.722,331.018 199.567,331.018 199.296 C 331.018 198.849,330.636 198.662,329.971 198.784 C 329.856 198.805,329.825 198.656,329.903 198.453 C 329.993 198.220,329.910 198.084,329.679 198.084 C 329.478 198.084,329.375 197.983,329.452 197.860 C 329.528 197.737,329.314 197.359,328.976 197.021 C 328.638 196.684,328.482 196.407,328.629 196.407 C 328.780 196.407,328.732 196.243,328.520 196.031 C 328.313 195.824,328.144 195.548,328.144 195.418 C 328.144 195.288,328.036 195.248,327.904 195.329 C 327.772 195.411,327.665 195.255,327.665 194.984 C 327.665 194.713,327.557 194.491,327.425 194.491 C 327.293 194.491,327.186 194.245,327.186 193.945 C 327.186 193.645,326.970 193.244,326.707 193.054 C 326.443 192.864,326.228 192.574,326.228 192.410 C 326.228 192.242,326.069 192.172,325.868 192.249 C 325.611 192.348,325.509 192.225,325.509 191.815 C 325.509 191.501,325.293 191.088,325.030 190.898 C 324.766 190.708,324.551 190.370,324.551 190.147 C 324.551 189.923,324.428 189.700,324.279 189.650 C 324.097 189.589,324.022 188.813,324.052 187.314 C 324.093 185.309,324.058 185.102,323.726 185.378 C 323.402 185.647,323.353 185.589,323.353 184.940 C 323.353 184.434,323.470 184.192,323.713 184.192 C 323.912 184.192,324.072 183.979,324.072 183.713 C 324.072 183.449,324.180 183.234,324.311 183.234 C 324.443 183.234,324.551 183.119,324.551 182.980 C 324.551 182.840,324.443 182.793,324.311 182.874 C 324.180 182.956,324.072 182.800,324.072 182.529 C 324.072 182.258,324.201 182.036,324.359 182.036 C 324.583 182.036,324.583 181.972,324.359 181.749 C 324.201 181.590,324.072 181.267,324.072 181.030 C 324.072 180.793,323.910 180.599,323.713 180.599 C 323.462 180.599,323.353 180.346,323.353 179.760 C 323.353 179.299,323.246 178.922,323.114 178.922 C 322.982 178.922,322.874 178.707,322.874 178.443 C 322.874 178.180,322.766 177.964,322.635 177.964 C 322.325 177.964,322.320 174.959,322.629 174.382 C 322.757 174.142,322.888 173.610,322.919 173.200 C 322.951 172.790,323.061 172.455,323.165 172.455 C 323.268 172.455,323.353 171.539,323.353 170.419 C 323.353 168.769,323.421 168.383,323.713 168.383 C 323.979 168.383,324.072 168.104,324.072 167.305 C 324.072 166.375,324.004 166.228,323.576 166.228 C 321.707 166.228,322.074 162.242,323.977 161.878 C 325.197 161.644,324.618 156.647,323.370 156.647 C 323.098 156.647,322.874 156.528,322.874 156.384 C 322.874 156.239,322.559 155.826,322.175 155.467 L 321.475 154.813 321.447 150.076 C 321.427 146.540,321.498 145.243,321.728 144.959 C 321.963 144.669,321.965 144.621,321.737 144.759 C 321.548 144.872,321.437 144.800,321.437 144.565 C 321.437 144.360,321.545 144.192,321.677 144.192 C 321.812 144.192,321.918 143.491,321.920 142.575 C 321.922 141.443,321.993 141.066,322.156 141.317 C 322.352 141.621,322.572 136.135,322.413 134.910 C 322.392 134.746,322.487 134.611,322.624 134.611 C 322.762 134.611,322.874 134.287,322.874 133.892 C 322.874 133.497,322.982 133.174,323.114 133.174 C 323.246 133.174,323.353 132.904,323.353 132.575 C 323.353 132.246,323.467 131.976,323.607 131.976 C 323.746 131.976,323.794 132.084,323.713 132.216 C 323.631 132.347,323.679 132.455,323.818 132.455 C 323.958 132.455,324.072 132.240,324.072 131.976 C 324.072 131.713,324.180 131.497,324.311 131.497 C 324.443 131.497,324.551 131.281,324.551 131.018 C 324.551 130.754,324.659 130.539,324.790 130.539 C 324.922 130.539,325.030 130.269,325.030 129.940 C 325.030 129.611,325.138 129.341,325.269 129.341 C 325.401 129.341,325.509 129.137,325.509 128.888 C 325.509 128.639,325.671 128.372,325.868 128.297 C 326.066 128.221,326.228 127.940,326.228 127.672 C 326.228 127.405,326.335 127.186,326.467 127.186 C 326.599 127.186,326.707 126.970,326.707 126.707 C 326.707 126.443,326.814 126.228,326.946 126.228 C 327.078 126.228,327.186 125.850,327.186 125.389 C 327.186 124.928,327.293 124.551,327.425 124.551 C 327.557 124.551,327.665 124.374,327.665 124.158 C 327.665 123.942,327.853 123.611,328.084 123.422 C 328.314 123.233,328.376 123.142,328.220 123.220 C 328.065 123.297,327.870 123.252,327.787 123.118 C 327.704 122.984,327.804 122.874,328.010 122.874 C 328.224 122.874,328.383 122.669,328.383 122.395 C 328.383 122.132,328.491 121.916,328.623 121.916 C 328.754 121.916,328.862 121.539,328.862 121.078 C 328.862 120.617,328.970 120.240,329.102 120.240 C 329.234 120.240,329.341 119.938,329.341 119.569 C 329.341 119.200,329.476 118.753,329.641 118.576 C 329.880 118.318,329.880 118.287,329.641 118.422 C 329.476 118.515,329.341 118.477,329.341 118.337 C 329.341 118.198,329.449 118.084,329.581 118.084 C 329.713 118.084,329.820 117.599,329.820 117.006 C 329.820 116.413,329.928 115.928,330.060 115.928 C 330.201 115.928,330.299 115.092,330.299 113.900 C 330.299 112.195,330.357 111.893,330.659 112.009 C 330.972 112.129,331.016 111.459,330.999 106.792 C 330.989 103.847,330.926 101.573,330.859 101.738 C 330.536 102.538,330.299 101.537,330.299 99.373 C 330.299 97.837,330.213 97.031,330.060 97.126 C 329.903 97.223,329.820 95.567,329.820 92.335 C 329.820 89.104,329.738 87.448,329.581 87.545 C 329.426 87.640,329.341 86.704,329.341 84.910 C 329.341 83.309,329.249 82.184,329.124 82.262 C 329.001 82.338,328.897 81.446,328.884 80.203 C 328.871 78.997,328.763 77.893,328.643 77.748 C 328.524 77.603,328.380 77.054,328.323 76.527 C 328.263 75.968,328.105 75.594,327.943 75.629 C 327.756 75.669,327.665 75.217,327.665 74.251 C 327.665 73.453,327.558 72.814,327.425 72.814 C 327.293 72.814,327.186 72.539,327.186 72.201 C 327.186 71.864,327.105 71.638,327.006 71.699 C 326.907 71.760,326.800 71.446,326.767 71.002 C 326.703 70.127,325.926 68.644,325.668 68.903 C 325.580 68.990,325.509 68.872,325.509 68.639 C 325.509 68.406,325.186 67.914,324.790 67.545 C 324.395 67.176,324.072 66.755,324.072 66.610 C 324.072 66.466,323.919 66.347,323.733 66.347 C 323.546 66.347,323.357 66.240,323.313 66.110 C 323.269 65.979,322.937 65.848,322.575 65.818 C 322.213 65.788,321.916 65.680,321.916 65.577 C 321.916 65.473,320.838 65.389,319.521 65.389 C 317.766 65.389,317.125 65.469,317.122 65.689 C 317.120 65.888,317.041 65.868,316.886 65.629 C 316.731 65.389,316.653 65.369,316.650 65.569 C 316.648 65.734,316.377 65.868,316.048 65.868 C 315.719 65.868,315.449 65.976,315.449 66.108 C 315.449 66.240,315.183 66.347,314.858 66.347 C 314.431 66.347,314.305 66.447,314.404 66.707 C 314.505 66.969,314.374 67.066,313.918 67.066 C 313.574 67.066,313.293 67.174,313.293 67.305 C 313.293 67.437,313.078 67.545,312.814 67.545 C 312.551 67.545,312.335 67.653,312.335 67.784 C 312.335 67.916,312.066 68.024,311.737 68.024 C 311.407 68.024,311.138 68.132,311.138 68.263 C 311.138 68.395,310.968 68.503,310.761 68.503 C 310.554 68.503,310.222 68.666,310.023 68.864 C 309.825 69.063,309.562 69.164,309.440 69.089 C 309.318 69.013,309.154 69.120,309.074 69.326 C 308.995 69.532,308.727 69.701,308.477 69.701 C 308.228 69.701,308.024 69.808,308.024 69.940 C 308.024 70.072,307.856 70.180,307.651 70.180 C 307.445 70.180,307.330 70.265,307.394 70.369 C 307.459 70.474,307.278 70.577,306.993 70.598 C 306.708 70.620,306.437 70.750,306.391 70.888 C 306.345 71.025,306.101 71.138,305.848 71.138 C 305.596 71.138,305.389 71.253,305.389 71.394 C 305.389 71.781,304.706 72.385,304.448 72.226 C 304.324 72.149,303.951 72.358,303.619 72.690 C 303.287 73.022,302.849 73.293,302.646 73.293 C 302.442 73.293,302.275 73.401,302.275 73.533 C 302.275 73.665,302.114 73.772,301.916 73.772 C 301.719 73.772,301.557 73.940,301.557 74.146 C 301.557 74.351,301.456 74.457,301.333 74.381 C 301.210 74.305,300.837 74.514,300.505 74.846 C 300.174 75.178,299.789 75.449,299.652 75.449 C 299.514 75.449,299.401 75.563,299.401 75.703 C 299.401 75.842,299.293 75.890,299.162 75.808 C 299.030 75.727,298.922 75.781,298.922 75.928 C 298.922 76.075,298.814 76.129,298.683 76.048 C 298.551 75.966,298.443 76.022,298.443 76.171 C 298.443 76.514,297.840 77.126,297.502 77.126 C 297.361 77.126,297.246 77.234,297.246 77.365 C 297.246 77.497,297.003 77.606,296.707 77.608 C 296.271 77.611,296.236 77.657,296.527 77.844 C 296.813 78.029,296.765 78.081,296.287 78.099 C 295.958 78.111,295.823 78.176,295.988 78.242 C 296.460 78.433,296.337 78.802,295.802 78.802 C 295.308 78.802,293.174 80.743,293.174 81.191 C 293.174 81.327,293.012 81.437,292.814 81.437 C 292.617 81.437,292.455 81.545,292.455 81.677 C 292.455 81.808,292.279 81.916,292.064 81.916 C 291.599 81.916,290.781 82.794,290.874 83.193 C 290.910 83.347,290.894 83.392,290.839 83.293 C 290.784 83.195,290.633 83.114,290.505 83.114 C 290.376 83.114,290.338 83.222,290.419 83.353 C 290.501 83.485,290.453 83.593,290.314 83.593 C 289.991 83.593,286.228 87.343,286.228 87.665 C 286.228 87.796,286.060 87.904,285.854 87.904 C 285.649 87.904,285.547 88.012,285.629 88.144 C 285.710 88.275,285.655 88.383,285.506 88.383 C 285.112 88.383,284.551 89.007,284.551 89.444 C 284.551 89.651,284.443 89.820,284.311 89.820 C 284.180 89.820,284.072 89.936,284.072 90.077 C 284.072 90.409,283.462 91.018,283.131 91.018 C 282.990 91.018,282.873 91.153,282.871 91.317 C 282.868 91.517,282.790 91.497,282.635 91.257 C 282.443 90.961,282.402 90.983,282.399 91.384 C 282.397 91.652,282.180 92.026,281.916 92.216 C 281.653 92.405,281.437 92.699,281.437 92.867 C 281.437 93.036,281.326 93.174,281.190 93.174 C 280.868 93.174,279.281 94.760,279.281 95.082 C 279.281 95.218,279.126 95.329,278.936 95.329 C 278.719 95.329,278.625 95.508,278.683 95.808 C 278.783 96.331,278.438 96.472,278.242 95.988 C 278.176 95.823,278.113 95.919,278.103 96.200 C 278.092 96.499,277.886 96.762,277.605 96.836 C 277.341 96.905,277.126 97.141,277.126 97.360 C 277.126 97.751,276.590 98.443,276.287 98.443 C 276.039 98.443,275.449 99.105,275.449 99.384 C 275.449 99.525,275.341 99.641,275.210 99.641 C 275.078 99.641,274.970 99.810,274.970 100.017 C 274.970 100.391,274.427 101.078,274.132 101.078 C 273.932 101.078,273.293 101.716,273.293 101.916 C 273.293 102.211,272.606 102.754,272.233 102.754 C 272.026 102.754,271.856 102.862,271.856 102.994 C 271.856 103.126,271.587 103.234,271.257 103.234 C 270.928 103.234,270.659 103.341,270.659 103.473 C 270.659 103.605,270.452 103.713,270.200 103.713 C 269.947 103.713,269.703 103.825,269.657 103.963 C 269.611 104.100,269.333 104.231,269.038 104.253 C 268.744 104.275,268.503 104.432,268.503 104.602 C 268.503 104.771,268.287 104.910,268.024 104.910 C 267.760 104.910,267.545 105.018,267.545 105.150 C 267.545 105.281,267.299 105.389,266.999 105.389 C 266.699 105.389,266.298 105.605,266.108 105.868 C 265.918 106.132,265.544 106.356,265.276 106.366 C 265.009 106.377,264.925 106.439,265.090 106.506 C 265.564 106.697,265.439 106.960,264.854 107.004 C 264.559 107.026,264.281 107.157,264.235 107.295 C 264.189 107.432,263.993 107.545,263.798 107.545 C 263.604 107.545,263.511 107.653,263.593 107.784 C 263.674 107.916,263.519 108.024,263.248 108.024 C 262.976 108.024,262.754 108.132,262.754 108.263 C 262.754 108.395,262.639 108.503,262.498 108.503 C 262.166 108.503,261.557 109.112,261.557 109.444 C 261.557 109.585,261.341 109.701,261.078 109.701 C 260.814 109.701,260.599 109.808,260.599 109.940 C 260.599 110.089,259.202 110.180,256.886 110.180 C 254.571 110.180,253.174 110.270,253.174 110.419 C 253.174 110.560,252.264 110.666,250.958 110.676 C 249.497 110.687,248.906 110.762,249.222 110.898 C 249.642 111.079,248.164 111.292,247.365 111.166 C 247.266 111.150,247.186 111.299,247.186 111.497 C 247.186 111.749,246.931 111.856,246.333 111.856 C 245.826 111.856,245.541 111.953,245.629 112.096 C 245.713 112.232,245.511 112.335,245.164 112.335 C 244.827 112.335,244.551 112.443,244.551 112.575 C 244.551 112.707,244.275 112.814,243.938 112.814 C 243.590 112.814,243.389 112.918,243.473 113.054 C 243.554 113.186,243.516 113.293,243.387 113.293 C 243.259 113.293,243.099 113.159,243.033 112.994 C 242.936 112.754,242.908 112.754,242.893 112.994 C 242.883 113.159,242.698 113.293,242.481 113.293 C 242.265 113.293,241.946 113.482,241.771 113.713 C 241.468 114.112,241.452 114.112,241.445 113.713 C 241.441 113.482,241.275 113.293,241.078 113.293 C 240.880 113.293,240.719 113.186,240.719 113.054 C 240.719 112.922,240.503 112.814,240.240 112.814 C 239.976 112.814,239.760 112.707,239.760 112.575 C 239.760 112.443,239.392 112.335,238.942 112.335 C 238.492 112.335,238.069 112.201,238.003 112.036 C 237.906 111.796,237.878 111.796,237.863 112.036 C 237.841 112.389,236.886 112.447,236.886 112.096 C 236.886 111.961,236.230 111.858,235.389 111.860 C 234.334 111.863,233.998 111.932,234.251 112.096 C 234.492 112.252,233.442 112.329,231.064 112.332 C 228.761 112.334,227.569 112.419,227.665 112.575 C 227.759 112.727,227.068 112.814,225.763 112.814 C 224.556 112.814,223.713 112.913,223.713 113.054 C 223.713 113.194,222.917 113.293,221.804 113.293 C 220.206 113.293,219.918 113.352,220.033 113.653 C 220.146 113.946,219.923 114.012,218.828 114.012 C 218.089 114.012,217.485 114.120,217.485 114.251 C 217.485 114.394,216.567 114.491,215.210 114.491 C 213.852 114.491,212.934 114.394,212.934 114.251 C 212.934 114.113,212.167 114.012,211.112 114.012 C 209.591 114.012,209.313 113.953,209.428 113.653 C 209.539 113.363,209.334 113.293,208.362 113.293 C 207.620 113.293,207.214 113.201,207.305 113.054 C 207.398 112.903,206.864 112.814,205.868 112.814 C 204.872 112.814,204.338 112.725,204.431 112.575 C 204.523 112.426,204.074 112.335,203.248 112.335 C 202.515 112.335,201.916 112.228,201.916 112.096 C 201.916 111.964,201.560 111.856,201.126 111.856 C 200.691 111.856,200.220 111.741,200.079 111.600 C 199.712 111.233,199.235 111.177,196.333 111.156 C 194.335 111.142,193.783 111.069,193.913 110.838 C 194.048 110.599,194.018 110.599,193.760 110.838 C 193.582 111.003,193.189 111.138,192.886 111.138 C 192.556 111.138,192.335 111.282,192.335 111.497 C 192.335 111.721,192.109 111.856,191.737 111.856 C 191.407 111.856,191.138 111.964,191.138 112.096 C 191.138 112.228,190.922 112.335,190.659 112.335 C 190.395 112.335,190.180 112.443,190.180 112.575 C 190.180 112.717,189.297 112.814,188.010 112.814 C 186.624 112.814,185.893 112.901,185.988 113.054 C 186.083 113.208,185.235 113.293,183.614 113.293 C 181.471 113.293,181.114 113.347,181.231 113.653 C 181.344 113.948,181.108 114.012,179.906 114.012 C 179.090 114.012,178.443 114.118,178.443 114.251 C 178.443 114.383,177.904 114.491,177.246 114.491 C 176.587 114.491,176.048 114.599,176.048 114.731 C 176.048 115.154,175.207 114.986,174.850 114.491 C 174.660 114.228,174.313 114.012,174.079 114.012 C 173.844 114.012,173.653 113.889,173.653 113.739 C 173.653 113.371,172.913 112.831,172.395 112.822 C 172.165 112.818,171.976 112.707,171.976 112.575 C 171.976 112.443,171.599 112.335,171.138 112.335 C 170.677 112.335,170.299 112.228,170.299 112.096 C 170.299 111.964,169.949 111.855,169.521 111.853 C 168.963 111.850,168.839 111.788,169.085 111.632 C 169.336 111.474,169.174 111.374,168.486 111.263 C 167.969 111.180,167.358 111.010,167.129 110.885 C 166.470 110.526,157.915 110.593,157.745 110.958 C 157.633 111.198,157.577 111.198,157.465 110.958 C 157.388 110.793,157.011 110.659,156.627 110.659 C 156.243 110.659,155.928 110.551,155.928 110.419 C 155.928 110.287,155.598 110.180,155.195 110.180 C 154.768 110.180,154.524 110.080,154.611 109.940 C 154.702 109.793,154.302 109.701,153.573 109.701 C 152.739 109.701,152.346 109.594,152.249 109.341 C 152.157 109.103,151.781 108.982,151.131 108.982 C 150.539 108.982,150.210 108.887,150.299 108.743 C 150.389 108.598,150.062 108.503,149.475 108.503 C 148.940 108.503,148.503 108.395,148.503 108.263 C 148.503 108.132,148.389 108.024,148.249 108.024 C 148.110 108.024,148.062 108.132,148.144 108.263 C 148.225 108.395,148.124 108.503,147.918 108.503 C 147.713 108.503,147.545 108.395,147.545 108.263 C 147.545 108.115,146.223 108.024,144.058 108.024 C 141.794 108.024,140.622 108.108,140.719 108.263 C 140.809 108.409,140.458 108.503,139.823 108.503 C 139.248 108.503,138.649 108.632,138.491 108.790 C 138.267 109.014,138.140 109.014,137.916 108.790 C 137.758 108.632,137.484 108.503,137.306 108.503 C 137.129 108.503,136.713 108.231,136.381 107.900 C 136.049 107.568,135.676 107.359,135.552 107.436 C 135.294 107.595,134.611 106.991,134.611 106.604 C 134.611 106.463,134.395 106.347,134.132 106.347 C 133.868 106.347,133.653 106.240,133.653 106.108 C 133.653 105.976,133.407 105.868,133.107 105.868 C 132.807 105.868,132.405 105.653,132.216 105.389 C 132.026 105.126,131.672 104.910,131.430 104.910 C 131.179 104.910,131.058 104.800,131.148 104.655 C 131.235 104.514,131.080 104.340,130.803 104.267 C 130.526 104.195,130.299 104.041,130.299 103.924 C 130.299 103.808,130.108 103.713,129.873 103.713 C 129.639 103.713,129.292 103.497,129.102 103.234 C 128.912 102.970,128.511 102.754,128.211 102.754 C 127.910 102.754,127.665 102.647,127.665 102.515 C 127.665 102.383,127.449 102.275,127.186 102.275 C 126.922 102.275,126.707 102.160,126.707 102.019 C 126.707 101.613,126.065 101.078,125.579 101.078 C 125.335 101.078,124.980 100.862,124.790 100.599 C 124.601 100.335,124.199 100.120,123.899 100.120 C 123.599 100.120,123.353 100.004,123.353 99.863 C 123.353 99.482,122.723 98.922,122.293 98.922 C 122.086 98.922,121.916 98.814,121.916 98.683 C 121.916 98.551,121.672 98.443,121.374 98.443 C 121.072 98.443,120.628 98.171,120.371 97.829 C 119.627 96.838,119.117 96.287,118.943 96.287 C 118.732 96.287,117.605 95.161,117.605 94.949 C 117.605 94.638,116.285 93.653,115.868 93.653 C 115.623 93.653,115.449 93.472,115.449 93.219 C 115.449 92.615,114.564 91.724,114.130 91.890 C 113.876 91.988,113.771 91.864,113.769 91.463 C 113.766 91.010,113.719 90.970,113.533 91.257 C 113.348 91.544,113.296 91.495,113.278 91.018 C 113.266 90.689,113.202 90.553,113.135 90.716 C 112.979 91.104,112.335 90.500,112.335 89.965 C 112.335 89.735,112.200 89.648,111.976 89.734 C 111.722 89.831,111.611 89.707,111.598 89.307 C 111.587 88.997,111.526 88.874,111.460 89.035 C 111.348 89.313,110.180 88.385,110.180 88.018 C 110.180 87.826,109.539 87.186,109.348 87.186 C 109.155 87.186,108.024 86.054,108.024 85.862 C 108.024 85.672,107.384 85.030,107.195 85.030 C 107.006 85.030,105.389 83.413,105.389 83.224 C 105.389 83.035,104.747 82.395,104.557 82.395 C 104.365 82.395,103.234 81.264,103.234 81.072 C 103.234 80.881,102.594 80.240,102.404 80.240 C 102.157 80.240,100.599 78.593,100.599 78.331 C 100.599 78.195,100.489 78.084,100.354 78.084 C 100.220 78.084,99.355 77.325,98.433 76.397 C 97.455 75.413,96.642 74.779,96.484 74.877 C 96.331 74.972,96.279 74.938,96.365 74.798 C 96.449 74.663,96.304 74.307,96.043 74.006 C 95.782 73.706,95.569 73.584,95.569 73.736 C 95.569 73.888,95.450 74.012,95.304 74.012 C 95.158 74.012,95.101 73.850,95.176 73.653 C 95.262 73.430,95.175 73.293,94.948 73.293 C 94.747 73.293,94.641 73.200,94.711 73.085 C 94.782 72.970,94.627 72.630,94.366 72.330 C 94.045 71.960,93.885 71.892,93.868 72.119 C 93.855 72.304,93.770 72.186,93.678 71.858 C 93.587 71.529,93.309 71.221,93.060 71.173 C 92.409 71.048,91.890 70.494,92.278 70.338 C 92.441 70.272,92.326 70.209,92.022 70.199 C 91.718 70.188,91.535 70.072,91.617 69.940 C 91.698 69.808,91.597 69.701,91.391 69.701 C 91.186 69.701,91.018 69.539,91.018 69.341 C 91.018 69.144,90.910 68.982,90.777 68.982 C 90.465 68.982,86.228 64.743,86.228 64.430 C 86.228 64.299,86.109 64.192,85.964 64.192 C 85.820 64.192,85.399 63.868,85.030 63.473 C 84.563 62.974,84.132 62.754,83.616 62.754 C 83.208 62.754,82.874 62.655,82.874 62.533 C 82.874 62.410,82.559 62.153,82.174 61.961 C 81.539 61.645,81.485 61.649,81.594 62.003 C 81.699 62.340,81.667 62.336,81.370 61.976 C 81.141 61.698,80.686 61.557,80.019 61.557 C 79.410 61.557,79.072 61.463,79.162 61.317 C 79.256 61.164,78.525 61.078,77.140 61.078 C 75.772 61.078,74.970 61.172,74.970 61.332 M252.216 191.509 C 252.940 191.726,253.802 191.958,254.132 192.024 C 257.286 192.656,262.276 196.106,264.716 199.341 C 269.393 205.545,269.753 212.385,265.776 219.521 C 261.918 226.444,251.589 230.698,242.754 229.001 C 240.413 228.552,239.898 228.421,238.922 228.026 C 238.659 227.920,238.066 227.692,237.605 227.519 C 229.247 224.391,223.251 213.947,225.863 207.066 C 227.429 202.941,228.488 202.254,227.524 205.988 C 227.057 207.798,227.304 211.245,228.098 214.012 C 229.284 218.148,233.711 223.257,237.362 224.705 C 237.689 224.835,238.282 225.084,238.679 225.259 C 240.950 226.258,246.615 226.606,249.222 225.906 C 259.540 223.135,265.269 212.214,261.524 202.455 C 259.821 198.017,255.809 193.921,251.617 192.342 C 250.290 191.842,248.690 191.373,248.263 191.359 L 247.784 191.344 248.263 191.125 C 248.877 190.845,250.536 191.006,252.216 191.509 M139.760 192.335 C 139.679 192.467,139.302 192.575,138.922 192.575 C 138.542 192.575,138.165 192.683,138.084 192.814 C 138.002 192.946,137.738 193.054,137.495 193.054 C 134.213 193.054,127.337 200.319,126.388 204.790 C 126.318 205.120,126.136 205.874,125.984 206.467 C 125.166 209.659,125.969 215.097,127.814 218.868 C 128.600 220.475,132.619 225.150,133.214 225.150 C 133.319 225.150,133.972 225.507,134.666 225.945 C 135.360 226.382,136.305 226.878,136.766 227.047 C 137.228 227.216,137.820 227.443,138.084 227.553 C 140.402 228.516,145.717 228.438,148.988 227.392 C 157.552 224.655,163.593 212.599,160.253 204.910 C 158.694 201.322,159.564 201.219,161.260 204.790 C 167.584 218.115,155.272 232.933,139.352 231.158 C 138.075 231.015,136.782 230.805,136.479 230.690 C 136.176 230.575,135.497 230.352,134.970 230.194 C 129.861 228.670,124.720 224.235,122.456 219.401 C 120.217 214.620,120.246 208.431,122.529 203.682 C 124.923 198.700,130.070 194.338,135.329 192.832 C 135.922 192.663,136.623 192.435,136.886 192.326 C 137.587 192.037,139.940 192.044,139.760 192.335 M145.027 196.886 C 146.281 196.886,147.039 199.361,146.136 200.508 C 144.253 202.903,139.810 200.767,141.177 198.123 C 141.663 197.185,142.913 196.597,144.042 196.776 C 144.421 196.837,144.864 196.886,145.027 196.886 M246.791 198.923 C 249.406 200.015,248.483 203.353,245.567 203.353 C 243.679 203.353,242.631 202.555,242.643 201.126 C 242.659 199.083,244.648 198.027,246.791 198.923 M151.966 201.135 C 153.074 202.330,152.448 204.311,150.962 204.311 C 149.504 204.311,149.001 202.137,150.186 200.952 C 150.824 200.313,151.244 200.357,151.966 201.135 M254.142 203.598 C 255.292 204.214,255.284 205.512,254.127 206.110 C 253.204 206.588,252.780 206.560,251.953 205.972 C 250.234 204.747,252.235 202.578,254.142 203.598 " stroke="none" fill="#02001c" fill-rule="evenodd"></path><path id="path1" d="M66.453 79.629 C 66.470 79.952,66.551 80.284,66.633 80.366 C 66.842 80.574,67.130 79.580,66.947 79.284 C 66.679 78.849,66.421 79.030,66.453 79.629 M328.862 81.811 C 328.862 82.148,328.963 82.361,329.087 82.285 C 329.353 82.120,329.323 81.198,329.051 81.198 C 328.947 81.198,328.862 81.473,328.862 81.811 M329.341 86.681 C 329.341 87.324,329.433 87.637,329.592 87.538 C 329.730 87.453,329.791 87.059,329.729 86.663 C 329.553 85.548,329.341 85.558,329.341 86.681 M283.503 90.329 C 283.003 90.861,282.656 91.359,282.734 91.436 C 282.811 91.514,282.874 91.451,282.874 91.297 C 282.874 91.144,282.990 91.018,283.131 91.018 C 283.453 91.018,284.072 90.412,284.072 90.097 C 284.072 89.967,284.207 89.812,284.371 89.753 C 284.536 89.695,284.613 89.583,284.542 89.505 C 284.471 89.427,284.003 89.798,283.503 90.329 M329.824 95.284 C 329.822 96.378,329.912 97.217,330.025 97.147 C 330.315 96.968,330.347 94.084,330.064 93.653 C 329.899 93.402,329.827 93.892,329.824 95.284 M66.553 94.045 C 66.496 94.290,66.511 94.868,66.586 95.329 L 66.722 96.168 66.885 95.232 C 67.056 94.249,66.756 93.172,66.553 94.045 M67.146 100.256 C 67.067 100.462,67.124 100.753,67.274 100.902 C 67.476 101.104,67.545 101.009,67.545 100.527 C 67.545 99.806,67.366 99.684,67.146 100.256 M330.299 100.824 C 330.299 101.850,330.657 102.317,330.887 101.592 C 331.025 101.156,330.681 99.880,330.425 99.880 C 330.356 99.880,330.299 100.305,330.299 100.824 M251.584 110.471 C 251.521 110.574,251.852 110.659,252.321 110.659 C 252.790 110.659,253.174 110.549,253.174 110.415 C 253.174 110.137,251.760 110.187,251.584 110.471 M193.865 110.942 C 193.799 111.050,194.361 111.138,195.116 111.138 C 195.870 111.138,196.438 111.088,196.377 111.028 C 196.170 110.821,193.986 110.746,193.865 110.942 M201.916 112.096 C 201.916 112.228,202.138 112.335,202.409 112.335 C 202.681 112.335,202.836 112.228,202.754 112.096 C 202.673 111.964,202.451 111.856,202.261 111.856 C 202.071 111.856,201.916 111.964,201.916 112.096 M231.499 112.092 C 231.403 112.248,231.936 112.334,232.980 112.332 C 233.935 112.330,234.481 112.246,234.298 112.130 C 233.838 111.838,231.674 111.809,231.499 112.092 M236.886 112.096 C 236.886 112.228,237.102 112.335,237.365 112.335 C 237.629 112.335,237.844 112.228,237.844 112.096 C 237.844 111.964,237.629 111.856,237.365 111.856 C 237.102 111.856,236.886 111.964,236.886 112.096 M330.307 112.762 C 330.314 113.597,330.337 113.624,330.666 113.188 C 331.116 112.593,331.113 112.184,330.659 112.009 C 330.378 111.902,330.301 112.067,330.307 112.762 M226.465 112.578 C 226.381 112.715,226.645 112.814,227.092 112.814 C 227.517 112.814,227.790 112.740,227.698 112.649 C 227.422 112.372,226.621 112.327,226.465 112.578 M184.279 113.106 C 184.215 113.209,184.607 113.293,185.150 113.293 C 185.753 113.293,186.078 113.199,185.986 113.051 C 185.817 112.777,184.456 112.820,184.279 113.106 M222.635 113.054 C 222.551 113.190,222.752 113.293,223.100 113.293 C 223.437 113.293,223.713 113.186,223.713 113.054 C 223.713 112.922,223.503 112.814,223.248 112.814 C 222.992 112.814,222.716 112.922,222.635 113.054 M180.454 113.653 C 180.024 113.979,180.035 113.997,180.659 114.004 C 181.021 114.009,181.317 113.911,181.317 113.787 C 181.317 113.369,180.912 113.306,180.454 113.653 M209.458 113.537 C 209.239 113.892,209.447 114.073,209.959 113.973 C 210.333 113.900,210.337 113.861,209.999 113.581 C 209.729 113.358,209.577 113.346,209.458 113.537 M219.293 113.674 C 218.853 113.996,218.862 114.012,219.475 114.012 C 219.830 114.012,220.120 113.911,220.120 113.787 C 220.120 113.379,219.763 113.330,219.293 113.674 M177.605 114.251 C 177.523 114.383,177.679 114.491,177.950 114.491 C 178.221 114.491,178.443 114.383,178.443 114.251 C 178.443 114.120,178.288 114.012,178.098 114.012 C 177.908 114.012,177.686 114.120,177.605 114.251 M212.934 114.251 C 212.934 114.394,213.852 114.491,215.210 114.491 C 216.567 114.491,217.485 114.394,217.485 114.251 C 217.485 114.109,216.567 114.012,215.210 114.012 C 213.852 114.012,212.934 114.109,212.934 114.251 M175.090 114.731 C 175.090 114.862,175.305 114.970,175.569 114.970 C 175.832 114.970,176.048 114.862,176.048 114.731 C 176.048 114.599,175.832 114.491,175.569 114.491 C 175.305 114.491,175.090 114.599,175.090 114.731 M322.874 133.653 C 322.874 133.916,322.982 134.132,323.114 134.132 C 323.246 134.132,323.353 133.916,323.353 133.653 C 323.353 133.389,323.246 133.174,323.114 133.174 C 322.982 133.174,322.874 133.389,322.874 133.653 M76.090 134.311 C 75.969 134.518,76.327 135.569,76.519 135.569 C 76.589 135.569,76.647 135.246,76.647 134.850 C 76.647 134.187,76.339 133.889,76.090 134.311 M76.647 139.880 C 76.647 140.144,76.754 140.359,76.886 140.359 C 77.018 140.359,77.126 140.144,77.126 139.880 C 77.126 139.617,77.018 139.401,76.886 139.401 C 76.754 139.401,76.647 139.617,76.647 139.880 M77.191 144.540 C 77.161 145.522,77.242 146.391,77.370 146.470 C 77.516 146.560,77.605 145.882,77.605 144.685 C 77.605 142.256,77.264 142.137,77.191 144.540 M77.346 148.323 C 77.161 148.886,77.167 149.701,77.357 149.701 C 77.493 149.701,77.605 149.377,77.605 148.982 C 77.605 148.410,77.448 148.012,77.346 148.323 M321.437 152.056 C 321.437 153.263,321.518 154.252,321.617 154.252 C 321.845 154.252,321.836 150.259,321.608 150.031 C 321.514 149.937,321.437 150.848,321.437 152.056 M75.082 154.515 C 74.994 154.792,75.041 155.137,75.186 155.282 C 75.377 155.473,75.449 155.336,75.449 154.778 C 75.449 153.894,75.311 153.795,75.082 154.515 M74.612 161.675 C 74.531 161.805,74.575 162.102,74.710 162.333 C 74.921 162.695,74.957 162.661,74.963 162.096 C 74.970 161.407,74.860 161.274,74.612 161.675 M324.072 182.555 C 324.072 182.840,324.147 182.999,324.238 182.907 C 324.497 182.648,324.534 182.036,324.290 182.036 C 324.170 182.036,324.072 182.269,324.072 182.555 M72.144 183.760 C 71.794 184.110,71.771 184.431,72.096 184.431 C 72.228 184.431,72.335 184.278,72.335 184.092 C 72.335 183.905,72.470 183.698,72.635 183.632 C 72.799 183.565,72.821 183.502,72.683 183.492 C 72.544 183.482,72.302 183.602,72.144 183.760 M324.076 187.725 C 324.074 188.153,324.180 188.503,324.311 188.503 C 324.616 188.503,324.616 187.776,324.311 187.305 C 324.135 187.033,324.078 187.134,324.076 187.725 M248.263 191.125 L 247.784 191.344 248.263 191.359 C 248.690 191.373,250.290 191.842,251.617 192.342 C 255.809 193.921,259.821 198.017,261.524 202.455 C 263.105 206.574,262.890 212.377,261.011 216.287 C 259.073 220.322,255.500 223.539,250.898 225.391 C 247.860 226.615,241.606 226.547,238.679 225.259 C 238.282 225.084,237.689 224.835,237.362 224.705 C 233.711 223.257,229.284 218.148,228.098 214.012 C 227.304 211.245,227.057 207.798,227.524 205.988 C 228.488 202.254,227.429 202.941,225.863 207.066 C 223.251 213.947,229.247 224.391,237.605 227.519 C 238.066 227.692,238.659 227.920,238.922 228.026 C 248.114 231.742,261.291 227.568,265.776 219.521 C 269.753 212.385,269.393 205.545,264.716 199.341 C 262.276 196.106,257.286 192.656,254.132 192.024 C 253.802 191.958,252.940 191.726,252.216 191.509 C 250.536 191.006,248.877 190.845,248.263 191.125 M136.886 192.326 C 136.623 192.435,135.922 192.663,135.329 192.832 C 130.070 194.338,124.923 198.700,122.529 203.682 C 120.246 208.431,120.217 214.620,122.456 219.401 C 124.720 224.235,129.861 228.670,134.970 230.194 C 135.497 230.352,136.176 230.575,136.479 230.690 C 136.782 230.805,138.075 231.015,139.352 231.158 C 155.272 232.933,167.584 218.115,161.260 204.790 C 159.564 201.219,158.694 201.322,160.253 204.910 C 163.593 212.599,157.552 224.655,148.988 227.392 C 145.717 228.438,140.402 228.516,138.084 227.553 C 137.820 227.443,137.228 227.216,136.766 227.047 C 136.305 226.878,135.360 226.382,134.666 225.945 C 133.972 225.507,133.319 225.150,133.214 225.150 C 132.619 225.150,128.600 220.475,127.814 218.868 C 125.969 215.097,125.166 209.659,125.984 206.467 C 126.136 205.874,126.318 205.120,126.388 204.790 C 127.337 200.319,134.213 193.054,137.495 193.054 C 137.738 193.054,138.002 192.946,138.084 192.814 C 138.165 192.683,138.542 192.575,138.922 192.575 C 139.302 192.575,139.679 192.467,139.760 192.335 C 139.940 192.044,137.587 192.037,136.886 192.326 M142.994 196.794 C 140.947 197.519,140.324 198.922,141.414 200.351 C 143.055 202.501,146.587 201.608,146.587 199.042 C 146.587 198.132,145.686 196.886,145.027 196.886 C 144.864 196.886,144.421 196.837,144.042 196.776 C 143.663 196.716,143.192 196.724,142.994 196.794 M244.072 198.877 C 242.409 199.658,242.073 201.703,243.436 202.742 C 245.822 204.562,249.302 202.471,248.018 199.989 C 247.402 198.797,245.426 198.240,244.072 198.877 M60.120 200.240 C 60.120 200.635,60.228 200.958,60.359 200.958 C 60.491 200.958,60.599 200.635,60.599 200.240 C 60.599 199.844,60.491 199.521,60.359 199.521 C 60.228 199.521,60.120 199.844,60.120 200.240 M150.186 200.952 C 149.001 202.137,149.504 204.311,150.962 204.311 C 152.448 204.311,153.074 202.330,151.966 201.135 C 151.244 200.357,150.824 200.313,150.186 200.952 M60.279 202.794 C 60.026 203.048,60.094 204.551,60.359 204.551 C 60.491 204.551,60.599 204.120,60.599 203.593 C 60.599 202.614,60.559 202.515,60.279 202.794 M251.916 203.751 C 250.990 204.239,251.008 205.299,251.953 205.972 C 253.448 207.036,255.643 205.792,254.858 204.326 C 254.332 203.343,253.135 203.109,251.916 203.751 M59.800 206.148 C 59.555 206.393,59.611 207.379,59.880 207.545 C 60.023 207.633,60.120 207.348,60.120 206.840 C 60.120 205.965,60.077 205.872,59.800 206.148 M57.964 217.365 C 57.964 218.090,58.072 218.683,58.204 218.683 C 58.335 218.683,58.443 218.090,58.443 217.365 C 58.443 216.641,58.335 216.048,58.204 216.048 C 58.072 216.048,57.964 216.641,57.964 217.365 M57.981 225.752 C 58.003 227.137,58.116 228.329,58.232 228.401 C 58.349 228.473,58.443 227.347,58.443 225.882 C 58.443 224.195,58.352 223.234,58.192 223.234 C 58.030 223.234,57.955 224.130,57.981 225.752 M337.249 227.964 C 337.247 228.260,337.353 228.503,337.485 228.503 C 337.785 228.503,337.785 228.249,337.485 227.784 C 337.297 227.494,337.252 227.528,337.249 227.964 M58.566 237.186 C 58.411 237.639,58.538 238.802,58.743 238.802 C 58.841 238.802,58.922 238.371,58.922 237.844 C 58.922 236.898,58.764 236.604,58.566 237.186 " stroke="none" fill="#efefef" fill-rule="evenodd"></path></g></svg>